<?xml version="1.0" encoding="utf-8"?>
<!-- Generator: Adobe Illustrator 24.3.0, SVG Export Plug-In . SVG Version: 6.00 Build 0)  -->
<svg version="1.1" id="Design" xmlns="http://www.w3.org/2000/svg" xmlns:xlink="http://www.w3.org/1999/xlink" x="0px" y="0px"
	 viewBox="0 0 595.3 841.9" style="enable-background:new 0 0 595.3 841.9;" xml:space="preserve">
<style type="text/css">
	.st0{clip-path:url(#Clip_1_);fill:#39C0C4;}
	.st1{clip-path:url(#Clip_1_);fill:#44B649;}
	.st2{clip-path:url(#Clip_1_);fill:#F8991D;}
	.st3{clip-path:url(#Clip_1_);fill:#F69799;}
	.st4{clip-path:url(#Clip_1_);fill:#F89938;}
	.st5{clip-path:url(#Clip_1_);fill:#45B864;}
	.st6{clip-path:url(#Clip_1_);fill:#F499C1;}
	.st7{clip-path:url(#Clip_1_);fill:#F79868;}
	.st8{clip-path:url(#Clip_1_);fill:#AC4D9D;}
	.st9{clip-path:url(#Clip_1_);fill:#DB9FC7;}
	.st10{clip-path:url(#Clip_1_);fill:#CC3366;}
	.st11{clip-path:url(#Clip_1_);fill:#CCDB2A;}
	.st12{clip-path:url(#Clip_1_);fill:#B487BD;}
	.st13{clip-path:url(#Clip_1_);}
	.st14{font-family:'RoughAnthem';}
	.st15{font-size:22.2891px;}
	.st16{font-size:25px;}
	.st17{font-family:'Callista';}
	.st18{font-size:49.9975px;}
</style>
<g id="Main">
	<defs>
		<rect id="Clip" x="-0.5" width="595.8" height="841.9"/>
	</defs>
	<clipPath id="Clip_1_">
		<use xlink:href="#Clip"  style="overflow:visible;"/>
	</clipPath>
	<rect id="Fill_1_1_" x="-0.5" class="st0" width="595.8" height="841.9"/>
	<circle id="Fill_2" class="st1" cx="297.6" cy="456.5" r="450"/>
	
		<ellipse id="Fill_3" transform="matrix(0.7071 -0.7071 0.7071 0.7071 -148.7356 211.6674)" class="st2" cx="181.1" cy="285.4" rx="338.4" ry="338.4"/>
	
		<ellipse id="Fill_4" transform="matrix(0.7071 -0.7071 0.7071 0.7071 -80.4911 376.4241)" class="st3" cx="414.1" cy="285.4" rx="338.4" ry="338.4"/>
	<circle id="Fill_5" class="st4" cx="297.6" cy="456.5" r="338.4"/>
	
		<ellipse id="Fill_6" transform="matrix(0.7071 -0.7071 0.7071 0.7071 -148.7356 211.6675)" class="st5" cx="181.1" cy="285.4" rx="253.3" ry="253.3"/>
	<circle id="Fill_7" class="st6" cx="414.1" cy="285.4" r="253.3"/>
	
		<ellipse id="Fill_8" transform="matrix(0.7071 -0.7071 0.7071 0.7071 -235.6295 344.1722)" class="st0" cx="297.6" cy="456.5" rx="253.3" ry="253.3"/>
	
		<ellipse id="Fill_9" transform="matrix(0.7071 -0.7071 0.7071 0.7071 -148.7356 211.6674)" class="st7" cx="181.1" cy="285.4" rx="196.6" ry="196.6"/>
	
		<ellipse id="Fill_10" transform="matrix(0.7071 -0.7071 0.7071 0.7071 -80.4911 376.4241)" class="st1" cx="414.1" cy="285.4" rx="196.6" ry="196.6"/>
	<circle id="Fill_11" class="st8" cx="297.6" cy="456.5" r="196.6"/>
	
		<ellipse id="Fill_12" transform="matrix(0.7071 -0.7071 0.7071 0.7071 -148.7356 211.6674)" class="st9" cx="181.1" cy="285.4" rx="154.1" ry="154.1"/>
	
		<ellipse id="Fill_13" transform="matrix(0.1222 -0.9925 0.9925 0.1222 80.3025 661.5412)" class="st10" cx="414.1" cy="285.4" rx="154.1" ry="154.1"/>
	<circle id="Fill_14" class="st11" cx="297.6" cy="456.5" r="154.1"/>
	<circle id="Star" class="st12" cx="181.1" cy="285.4" r="125.8"/>
	<circle id="Map" class="st4" cx="414.1" cy="285.4" r="125.8"/>
	<circle id="Image" data-type="image" class="st0" cx="297.6" cy="456.5" r="125.8"/>
	<g id="Text_3" class="st13">
		<text transform="matrix(0.9008 0 0 1 249.8569 787.7559)" class="st14 st15">32.13.3023</text>
	</g>
	<g id="Text_2" class="st13">
		<text transform="matrix(1 0 0 1 158.2915 743.158)" class="st14 st16">Our journey begains this day</text>
	</g>
	<g id="Text_1" class="st13">
		<text transform="matrix(1 0 0 1 109.1265 686.5791)" class="st17 st18">Shafin and Tamanna</text>
	</g>
</g>
</svg>
